<svg xmlns="http://www.w3.org/2000/svg" width="853.222" height="152" viewBox="0 0 853.222 152">
  <g id="FullLogo" transform="translate(-171 -516)">
    <g id="Text" transform="translate(-1512.59 -338.912)">
      <path id="Path_100" data-name="Path 100" d="M1854.783,860.958v125c-1.427,6.412,9.966,5.346,6.4,12.1-4.63,5.7-13.886,2.848-21.009,3.919-6.412-1.071-16.369,2.137-18.16-5.336-.711-5.7,6.412-5.346,5.7-10.687v-61.6c-1.071,4.27-.716,10.327-5.346,12.464a8.389,8.389,0,0,1-7.483-2.848c-1.781-2.137-1.071-7.123-3.559-7.483-8.55,1.427-12.819,10.687-14.967,17.454-2.493,13.886-1.07,30.274-1.07,45.226,1.07,3.919,8.188,3.208,4.985,8.55a12.65,12.65,0,0,1-4.631,3.554s-6.052.355-15.672.355c-9.972,0-14.967-.355-14.967-.355a5.522,5.522,0,0,1-3.559-4.265c-1.426-2.138.711-4.275,2.138-4.986,1.427,0,3.208-2.493,3.559-3.919V926.487c-.354-5.341-8.886-4.27-6.763-9.611,7.483-6.768,18.16-6.768,26.354-12.108,2.138.355,4.625-.356,6.407,1.071,2.849,3.915.355,10.327,2.138,14.966h1.071c4.985-6.412,11.037-16.028,20.657-15.672,2.493.355,8.887,0,10.688,4.274,0-12.819,1.4-29.932-6.412-36.681,0-8.886,19.231-7.834,25.288-14.966,2.483-1.067,7.829-1.067,8.185,3.2Zm218.655-3.564.711,17.45.355,107.569c1.4,2.137,4.63.711,5.346,3.208,1.071,5.346-2.849,7.123-6.768,8.886-8.194,2.848-15.668,6.758-24.572,7.114-3.92-1.071,1.071-4.977-2.849-6.758-3.919,4.63-9.976,9.611-16.023,7.114-12.112-1.071-18.88-11.393-22.089-21.364-4.62-24.217-2.492-51.283,11.4-70.154a22.071,22.071,0,0,1,14.967-7.123,29.344,29.344,0,0,1,10.687,4.986l1.07-1.777.355-28.492c-2.492-3.563-10.331-4.985-6.768-11.037,2.493-1.427,4.631-.355,8.194-1.782,7.123-3.208,14.6-6.412,21.725-9.971a3.466,3.466,0,0,1,4.271,2.137Zm-35.259,62.325c-1.071-1.782-2.849-.355-3.92,1.071-6.4,17.094-9.255,42.378,2.138,58.045,1.782,1.782,4.274.711,5.7-1.426a78.641,78.641,0,0,0,2.849-42.733c-1.4-5.346-2.138-11.037-6.768-14.966Z" transform="translate(281.117 0.73)" fill-rule="evenodd"/>
      <path id="Path_105" data-name="Path 105" d="M2044.742,972.807c-1.45-3.227-5-3.6-8.185-3.6-4.3.374-3.228,6.08-5,9.26-3.555,3.929-9.261,1.45-13.189-.327a22.6,22.6,0,0,1-8.512-16.37c9.962-4.677,21.7-9.307,33.813-14.966a39.394,39.394,0,0,0-13.516-37.041,25.191,25.191,0,0,0-23.525-2.152c-16.743,6.033-19.923,25.3-22.075,40.97h-.374c-2.1-12.815-3.881-25.676-13.142-35.638a19.61,19.61,0,0,0-19.971-6.407c-3.181,1.076-4.63,5.706-7.483,2.853v-48.78a6.862,6.862,0,0,0-6.735-3.555c-7.857,6.407-19.971,5.332-26.705,13.516-1.076,5,6.033,5,6.033,12.487v112.2c-1.777-1.076-2.853,0-3.554-2.151-1.45-13.516-2.525-26-3.929-39.192-1.777-15.294-1.777-31.663-13.189-43.075-4.958-3.928-11.739-3.554-18.146-2.853-3.928,1.45-5.332,5-7.811,8.185-5,.374-5.378-7.109-10.71-7.81a20.377,20.377,0,0,0-21,2.853c-2.479,1.4-2.479,6.735-6.408,4.958a12.454,12.454,0,0,1-.7-6.407c-1.076-3.555-5.707-3.555-8.56-2.152L1796.538,919.4c-2.853,3.882,6.735,4.63,6.735,9.588v60.566c-.328,3.554-4.256,4.256-5.707,7.483-1.029-3.929-6.734-3.227-6.407-7.483l-.327-79.415c-.7-2.853-4.63-3.227-7.156-2.853-8.886,4.63-18.474,7.811-27.734,12.113-2.854,3.882,7.108,4.958,7.483,8.512v61.642a8.334,8.334,0,0,1-5.706,5.706,10.259,10.259,0,0,1-7.483-6.782l-.374-111.451c.374-2.526,2.479-2.853,5-2.526,8.559,6.407,9.635,17.118,14.966,25.3,2.479,1.777,5.659,3.928,8.886,2.479a7.284,7.284,0,0,0,4.63-8.185l-7.857-35.264c-.749-6.033-8.559-4.256-10.71-.327-21,.7-44.852.7-64.074,0a5.6,5.6,0,0,0-5.332-2.853c-2.151-.374-3.227,1.777-4.3,2.853a344.171,344.171,0,0,0-7.483,39.52c.7,2.152,2.479,3.227,4.3,4.63,14.218,2.479,12.44-14.966,18.848-22.449a8.95,8.95,0,0,1,7.857-5.706c.7,1.076,2.853.7,3.18,3.929V988.8a9.978,9.978,0,0,1-6.782,6.782,4.059,4.059,0,0,0,1.45,4.63c7.811,3.18,14.966,1.777,24.554,1.777,7.156-.374,15.34,1.4,20.672-2.853.7,1.076,2.151,1.4,2.853,2.1a174.168,174.168,0,0,0,33.486-.328c2.1-1.076,2.479-2.479,3.18-4.63,0,2.853,2.526,4.256,4.3,5.332a163.221,163.221,0,0,0,32.411-.328l2.806-2.151c3.228-5.332-5.659-4.63-4.63-9.26l-.327-58.742a7.229,7.229,0,0,1,6.033-6.782,5.122,5.122,0,0,1,6.407,2.853c1.076,2.853,1.076,42.747.7,60.894-.7,3.227-2.1,7.155-6.033,7.483-1.4.7-.7,5,1.076,5.332,1.075.374,2.151.374,3.554.7,9.634,0,22.777,2.151,30.634-1.777,3.882-6.033-5.332-4.583-5-10.289l.421-59.491c.375-1.777,3.228-5.659,6.034-4.256a11.187,11.187,0,0,1,5.706,9.26,297.8,297.8,0,0,1,3.227,56.965c-.375,4.256-6.782,1.777-5,6.735.749,1.076.749,2.525,3.228,2.853,2.478.748,29.885.374,29.558.374,2.853-.7,3.555-1.076,4.256-2.853,1.076,1.777,3.227,4.63,6.407,3.555,6.781-.7,6.08-10.664,11.412-10.664,3.227,0,2.853,3.18,4.256,5,4.3,6.033,17.118,8.185,26.752,5.659,16-5.659,18.848-23.853,19.55-39.52,2.853,14.966,7.109,33.113,23.852,38.444,11.038,2.853,24.928,2.151,32.738-6.361A21.554,21.554,0,0,0,2044.742,972.807Zm-89.376,5.332c-1.075,1.029-2.853,4.63-5,2.479-8.185-11.739-7.436-28.155-6.033-42.747,1.4-6.407,5.332-18.146,7.811-18.146,4.256,0,4.63,5.706,5.706,9.26C1962.1,944.652,1963.551,963.875,1955.366,978.139Zm51.961-27.781c-4.256-8.185-3.555-19.6-2.151-28.108.748-2.152,4.677-5.706,7.482-3.929l5.706,9.588c3.929,7.483,3.555,13.189-.7,17.819A41.878,41.878,0,0,1,2007.327,950.358Z" transform="translate(0 0)" fill-rule="evenodd"/>
      <path id="Path_106" data-name="Path 106" d="M1932.978,956.021c-7.812-4.63-5.332-17.819-6.034-25.629-1.4-17.445-2.479-35.638-9.635-50.932a22.044,22.044,0,0,0-20.251-13.89,17.812,17.812,0,0,0-11.037,8.185c-2.151-.749-.374-3.227-1.45-4.3-.7-2.853-3.929-3.554-7.108-2.853-7.857,4.63-17.117,6.407-24.227,11.786-2.853,5.332,5.706,5.332,6.407,10.336l.374,61.595c-1.075,2.151-1.777,5.706-5.378,5.706l-1.029-6.407c-1.823-7.156-5.706,1.777-7.483-5.706-1.075-21.748-1.449-43.075-7.155-63.419A18.283,18.283,0,0,0,1823.3,868.75c-12.814-1.4-28.856-2.479-38.117,8.185a19.591,19.591,0,0,0-2.479,14.966,15.881,15.881,0,0,0,5.706,7.156c5,.7,11.411,1.777,14.966-2.525a13.869,13.869,0,0,0,2.152-9.962c-1.076-3.554-7.484-2.853-4.631-6.781a29.214,29.214,0,0,1,11.038,0c5.705,4.3,5.705,12.488,5.331,18.193-1.449,4.256-8.559,4.63-12.113,6.033-11.739,5.706-24.928,16.042-24.226,30.634.373,9.961,1.776,20.3,11.411,25.629,6.781,3.554,16,6.08,23.479,2.151a66.886,66.886,0,0,0,10.335-6.408c5,3.555,9.261,7.857,17.118,7.483a14.545,14.545,0,0,0,10.289-4.256,7.355,7.355,0,0,0,4.631,3.882,93.835,93.835,0,0,0,31.709-1.777c.7-1.4,1.777-3.555.374-5.332-3.554-.327-4.3-3.928-4.63-6.781l-.7-60.519,2.479-2.479a3.677,3.677,0,0,1,3.929,1.4c6.734,13.189,8.512,28.108,11.037,42.747-.748,7.811,3.508,22.075-5.379,26.331a3.966,3.966,0,0,0,1.076,4.63,96.257,96.257,0,0,0,31.71,1.076l2.853-1.4A4.3,4.3,0,0,0,1932.978,956.021Zm-113.6-10.336a6.281,6.281,0,0,1-7.482,1.777c-7.483-2.1-6.407-19.549-4.257-27.781a15.461,15.461,0,0,1,9.589-8.185v.047l1.075,1.4A125.805,125.805,0,0,1,1819.375,945.685Z" transform="translate(357.817 39.188)" fill-rule="evenodd"/>
    </g>
    <g id="Tree" transform="translate(1078.111 8)">
      <path id="Path_103" data-name="Path 103" d="M1958.8,879.964a65.772,65.772,0,0,1-17.529,17.879c-34.013-1.054-66.271-9.821-99.916-11.225l-2.8-3.159c39.626-9.089,80.637,4.931,120.262-3.476Z" transform="translate(-2026.096 -252.558)" fill-rule="evenodd"/>
      <path id="Path_104" data-name="Path 104" d="M1914.1,891.367l18.578,1.4c-19.983,14.734-53.995,15.07-75.728,2.8a107.239,107.239,0,0,1-17.183-13.329C1865.711,882.951,1889.207,888.913,1914.1,891.367Z" transform="translate(-2021.713 -244.333)" fill-rule="evenodd"/>
      <path id="Path_102" data-name="Path 102" d="M1907.878,854.248c4.209,7.013,7.367,14.734,11.576,21.737l3.158-.35A131.518,131.518,0,0,0,1914.2,854.6c10.521-3.5,9.821,10.166,14.734,15.075,5.254-1.054,10.162-5.258,15.425-7.367,1.755,0,2.455,1.754,3.509,2.454l-14.029,11.921a31.355,31.355,0,0,0,3.858,12.27l15.784-21.033c1.754.35,2.8,2.454,4.2,3.159a117.012,117.012,0,0,0-7,10.866l1.054.7c7,2.1,19.632-4.558,21.737,6.308l-15.783,1.4-7,11.921c9.812,1.382,17.174-5.262,25.6-8.062l3.509,6.313a141.813,141.813,0,0,1-32.608,10.516c-1.754,2.454-2.8,5.263-4.558,7.712,12.965-2.8,26.3-6.313,39.6-9.816a76.224,76.224,0,0,1-7.367,58.9l-4.209,2.454c-41.016,8.058-80.991-5.263-121.656,2.8-14.03-19.288-18.578-49.087-8.749-71.524l16.115-.7v-1.4c-1.413-5.608-14.029-11.221-5.262-17.179a143.1,143.1,0,0,1,15.774,16.829,14.237,14.237,0,0,0,5.613-.35l-17.538-20.338c1.413-3.159,4.908-4.908,7.367-7.367l14.734,3.154a74.55,74.55,0,0,0,.35-12.62,59.516,59.516,0,0,1,9.812-4.208l8.417,16.829,10.871-19.983h1.381Zm0,14.375-7,15.424a39.959,39.959,0,0,0,4.209,14.734c8.057-2.1,5.953-11.571,8.057-17.533Zm-23.141.7c.7,2.8-2.454,10.167,3.509,8.412Zm-19.628,9.467,11.244,11.571c.349-2.8.349-5.608.7-8.417A118.723,118.723,0,0,0,1865.109,878.79Zm58.2,5.963.7,1.054c.7-.7,1.754-1.4,1.754-2.454a3.541,3.541,0,0,0-2.454,1.381Zm-37.866,1.05v12.97l5.613-11.221A11.621,11.621,0,0,0,1885.442,885.8Zm63.812,4.9c-2.1.35-3.859.7-4.558.7l-7.367,11.221c1.382,0,3.859.35,4.908.35l7.018-12.271Zm-30.154,9.117.7,14.025c3.859-6.663,14.734-12.271,10.172-21.737a60.918,60.918,0,0,0-10.871,7.712Zm-20.333,11.925-3.509-13.675-2.8,6.662,6.313,7.012Zm11.567-7.717c-4.9-.7-4.558,8.417-.35,8.748Zm-42.07,1.754-6.312,7.712,10.521,4.558,11.217-8.062C1881.933,902.626,1873.176,907.189,1868.263,905.785Zm-24.191,1.4,6.313,3.154c3.509,2.454,3.859-1.75,5.6-3.5C1852.138,907.189,1847.929,906.485,1844.071,907.189Zm50.136,12.271L1890,915.252c-6.663,3.5-12.266,12.271-19.633,14.734h-8.748a21.848,21.848,0,0,0,4.208-6.308,34.962,34.962,0,0,0-9.112-3.159,74.265,74.265,0,0,1-7.367,9.462h-4.558A52.666,52.666,0,0,0,1849,954.522c17.529.35,37.157,2.8,55.4,4.908V932.076l-3.508-5.258a23.22,23.22,0,0,1-10.171,3.154,108.271,108.271,0,0,1-15.07,0l18.583-10.511Zm-48.732-4.209-.7,8.417a19.332,19.332,0,0,0,4.208-6.663l-3.508-1.754Zm131.827,6.313a21.9,21.9,0,0,0-1.036-2.473,67.851,67.851,0,0,1-7.012,1.754l5.613,10.516-9.117-.35c-.7-1.054-1.054-2.454-2.1-4.208-.35-.7-2.1-4.2-1.754-4.2a111.266,111.266,0,0,1-11.567,2.454c.7,2.454,1.381,3.854,2.1,5.958h-7.366c-1.055-1.754-1.754-2.8-2.8-4.554-8.417,2.45-16.474,4.9-24.891,7.367a140.963,140.963,0,0,0,2.8,28.05,260.274,260.274,0,0,0,46.964,3.858,59.456,59.456,0,0,0,10.171-44.2Zm-40.325-9.117a19.77,19.77,0,0,0-4.549,0l-5.962,9.816a21.751,21.751,0,0,0,5.6-1.4l4.908-8.412Z" transform="translate(-2038.976 -346.031)" fill-rule="evenodd"/>
    </g>
  </g>
</svg>
